# xmcd CD database file
#
# Track frame offsets:
#	150
#	13372
#	34060
#	48567
#	70847
#	96800
#	115030
#	128227
#	144297
#	157417
#	178750
#	200192
#	221085
#	239130
#	259800
#	276365
#
# Disc length: 3862 seconds
#
# Revision: 0
# Processed by: cddbd v1.5.2PL0 Copyright (c) Steve Scherf et al.
# Submitted via: CDex 1.70beta2
#
DISCID=040f1410
DTITLE=KM Myrland - Fartstid
DYEAR=2007
DGENRE=Country
TTITLE0=Ode Til Heggenstua
TTITLE1=Elisabeth's Øyne
TTITLE2=Sånn Som Skyan Fer
TTITLE3=Til Oss
TTITLE4=Tidlig Høstkveld (Bleika Sannhet)
TTITLE5=Mødre, Sjøfolk Og Vi
TTITLE6=Kenneth Myhre
TTITLE7=Jennys Penn
TTITLE8=78 Grader Nord
TTITLE9=Pusheren
TTITLE10=AA Søndags Morra
TTITLE11=Rekepeller, Bilselger
TTITLE12=Vakkervenn
TTITLE13=Midnattsolas Glede Og Fryd
TTITLE14=Æ Brenn Mett Lys I Begge Enda
TTITLE15=Monica (med Terry Jacks)
EXTD=YEAR: 2007
EXTT0=
EXTT1=
EXTT2=
EXTT3=
EXTT4=
EXTT5=
EXTT6=
EXTT7=
EXTT8=
EXTT9=
EXTT10=
EXTT11=
EXTT12=
EXTT13=
EXTT14=
EXTT15=
PLAYORDER=
